<svg width="40" height="30" viewBox="0 0 40 30" fill="none" xmlns="http://www.w3.org/2000/svg">
<g clip-path="url(#clip0_4603_201)">
<path d="M0.00170898 30H39.9988V0H0.00170898V30Z" fill="black"/>
<path d="M0.4646 29.462H39.5723V0.546143H0.4646V29.462Z" fill="white"/>
<path d="M9.09084 16.5633L9.84742 17.588L10.6292 16.5702H11.2556V16.8847L10.2758 18.1644L11.2556 19.5328V16.5702H13.0239C13.3583 16.5702 13.8487 16.7528 13.8487 17.5719C13.8487 18.7211 13.2034 18.7347 12.8501 18.7347H11.9318V19.8473H10.6229L9.82327 18.757L9.00421 19.8392H6.40162V16.5627H9.09084V16.5633V16.5633ZM17.1023 16.5633H19.3327V17.2698H17.7849V17.8834H19.2896V18.505H17.7849V19.1538H19.3327V19.8398H17.1023V16.5633V16.5633ZM14.8541 19.8479H14.1716V16.5708H15.9457C16.2812 16.5708 16.7647 16.7466 16.7647 17.4481C16.7647 17.8443 16.6655 18.136 16.2933 18.3558C16.6156 18.3997 16.7401 18.6486 16.7401 19.1749L16.7647 19.8479H16.1006L16.0822 19.2473C16.0764 18.97 15.983 18.692 15.7477 18.692H14.8541V19.8479V19.8479ZM23.6159 17.8406C24.4554 17.8902 24.5247 18.3849 24.5247 18.9111C24.5247 19.5253 24.0968 19.8547 23.65 19.8547H22.2172V19.1532H23.334C23.5235 19.1532 23.8054 19.1532 23.8054 18.8375C23.8054 18.6876 23.7556 18.5929 23.554 18.5669C23.3973 18.5489 23.2403 18.5361 23.083 18.5285C22.3254 18.505 22.1495 18.061 22.1495 17.5199C22.1495 16.9057 22.5154 16.5695 22.9622 16.5695H24.3951V17.2723H23.3466C23.1082 17.276 22.8504 17.2388 22.8504 17.5577C22.8504 17.7583 22.978 17.7985 23.1387 17.8177C23.1943 17.8183 23.5666 17.8406 23.6159 17.8406V17.8406ZM21.06 17.8406C21.899 17.8902 21.9689 18.3849 21.9689 18.9111C21.9689 19.5253 21.5404 19.8547 21.0942 19.8547H19.6608V19.1532H20.7776C20.9666 19.1532 21.2496 19.1532 21.2496 18.8375C21.2496 18.6876 21.1997 18.5929 20.9981 18.5669C20.9078 18.552 20.576 18.5297 20.5271 18.5285C19.7695 18.505 19.5936 18.061 19.5936 17.5199C19.5936 16.9057 19.9596 16.5695 20.4059 16.5695H21.8392V17.2723H20.7907C20.5518 17.276 20.2945 17.2388 20.2945 17.5577C20.2945 17.7583 20.4216 17.7985 20.5833 17.8177C20.6384 17.8183 21.0107 17.8406 21.06 17.8406V17.8406ZM12.0683 14.2149H11.3858V10.9378H13.1599C13.4948 10.9378 13.9794 11.1136 13.9794 11.8151C13.9794 12.2108 13.8802 12.5036 13.508 12.7228C13.8303 12.7667 13.9548 13.0156 13.9548 13.5419L13.9794 14.2149H13.3158L13.2969 13.615C13.2906 13.337 13.1982 13.0596 12.9619 13.0596H12.0688V14.2149H12.0683V14.2149ZM14.327 14.2149H15.009V10.9341H14.327V14.2149ZM8.7648 10.9378H10.9946V11.6436H9.44839V12.2584H10.9521V12.8807H9.44839V13.5277H10.9946V14.2149H8.7648V10.9378V10.9378ZM3.78485 14.2149H5.15886V11.7829L6.07032 14.2149H6.69091L7.6239 11.8232V14.2149H8.30592V10.9378H7.21752L6.38009 13.1364L5.54581 10.9378H4.47579V14.0942L3.28449 10.9378H2.38248L1.1665 14.2149H1.88633L2.15252 13.4837H3.51393L3.78485 14.2149V14.2149ZM18.9352 13.4856H17.5743L17.3076 14.2168H16.4077C15.6511 14.2168 15.3156 13.4689 15.3319 12.5618C15.355 11.2158 16.0297 10.9359 16.34 10.9359H17.2304V11.6492H16.8088C16.3557 11.6492 16.0024 11.7049 16.0024 12.4727V12.7104C16.0055 13.2881 16.2623 13.4249 16.4266 13.4651C16.467 13.4763 16.5416 13.4806 16.5689 13.4781L16.864 13.4763L17.8038 10.9378H18.7068L19.8698 14.0137V10.9359H20.8773L22.0282 13.2051V10.9359H22.7102V14.2168H21.7799L20.5518 11.817V14.2168H19.2056L18.9352 13.4856V13.4856Z" fill="#9E9E9E"/>
<path d="M24.4009 16.0593V1.47229H1.22534V12.7519L2.09427 10.4412H3.57067L4.05475 11.8157V10.4412H5.85299L6.39903 11.8021L6.93246 10.4412H13.2722C13.5201 10.4412 13.855 10.544 14.0047 10.8653V10.4412H15.332V10.9384C15.5057 10.661 15.7662 10.4412 16.2744 10.4412H18.9794L19.4755 11.7718V10.4412H21.0764L21.6465 11.5972V10.4412H23.1103V14.7121H21.5352L20.8774 13.4546V14.7121H18.8801L18.5578 13.8781H17.9246L17.6269 14.7121H16.3736C16.1006 14.6836 15.4685 14.5511 15.332 14.0545V14.7121H12.9252V13.7765C12.9252 13.644 12.826 13.4837 12.6895 13.4837H12.429V14.7121H7.30471V13.7468L6.92039 14.7121H5.87819L5.48127 13.732V14.7121H3.43416L3.16114 13.9518H2.50327L2.21818 14.7121H1.22534V28.5084H24.4009V20.0528C24.277 20.2144 24.0785 20.3457 23.7808 20.3457H21.8445V20.0237C21.6959 20.2144 21.4854 20.3457 21.1499 20.3457H15.6916V19.4535C15.679 19.3358 15.7289 19.0876 15.4559 19.0876H15.2327V20.3457H13.781V18.8962C13.6319 19.1903 13.3101 19.204 13.099 19.2188H12.3293V20.3457H10.394L9.83538 19.5408L9.23999 20.3457H5.95275V16.0593H9.28987L9.87265 16.8345L10.4686 16.0593H13.1111C13.2969 16.0729 13.6503 16.1757 13.781 16.4098V16.0593H16.0392C16.2376 16.0593 16.622 16.1609 16.7837 16.468V16.0593H19.612V16.4389C19.7606 16.2054 19.9969 16.0593 20.356 16.0593H22.1674V16.4252C22.3039 16.1906 22.6641 16.0593 22.8751 16.0593H24.4009V16.0593ZM30.779 15.6866C30.779 16.2345 29.0101 15.6303 29.0101 16.9627C29.0101 17.5713 29.4275 17.8468 29.8969 17.8468C30.2671 17.8468 30.5511 17.7564 30.8315 17.4487L30.9323 17.762H31.8243C31.7734 17.648 31.7655 17.4995 31.7655 17.3323V15.9615C31.7655 15.2619 31.6941 14.7474 30.518 14.7474C29.5362 14.7474 29.1614 15.1108 29.1614 15.7312H30.1101C30.1337 15.4798 30.3191 15.447 30.4566 15.447C30.5616 15.447 30.779 15.4749 30.779 15.6866V15.6866ZM35.9117 17.367V17.7589H36.798V13.7307H35.8125V15.1238C35.603 14.8328 35.3851 14.7436 35.0722 14.7436C34.4789 14.7436 34.019 15.3752 34.019 16.3491C34.019 17.1769 34.3986 17.8425 35.1478 17.8425C35.4665 17.8425 35.6797 17.7254 35.9117 17.367V17.367ZM33.7633 15.7522V14.7604C33.7208 14.7548 33.6777 14.7436 33.6346 14.7436C33.2514 14.7436 33.0088 14.9616 32.8712 15.421H32.8618V14.8278H31.9656V17.7583H32.9516V16.6042C32.9516 15.972 33.1558 15.7479 33.559 15.7479L33.7633 15.7522V15.7522ZM27.875 15.2631C27.8414 14.8446 27.6183 14.6037 27.2676 14.6037C26.8738 14.6037 26.6365 15.0012 26.6365 15.7782C26.6365 16.3435 26.741 16.8741 27.3096 16.8741C27.6708 16.8741 27.8414 16.5788 27.8845 16.1924H28.9608C28.8621 17.2326 28.2305 17.8579 27.33 17.8579C26.2012 17.8579 25.5176 17.0431 25.5176 15.733C25.5176 14.4297 26.2668 13.6187 27.2208 13.6187C28.2641 13.6187 28.8479 14.2285 28.9382 15.2625H27.875V15.2631V15.2631Z" fill="#9E9E9E"/>
<path d="M11.9322 18.0629H12.7823C13.0611 18.0629 13.1603 17.8722 13.1603 17.653C13.1603 17.492 13.0705 17.2772 12.7849 17.2772H11.9322V18.0629ZM8.63188 17.2698H7.08461V17.8833H8.5883V18.5049H7.08461V19.1538H8.65708L9.40788 18.165L8.74371 17.2728L8.63188 17.2698ZM14.8541 18.0195H15.7041C15.9829 18.0195 16.0821 17.8728 16.0821 17.653C16.0821 17.492 15.9923 17.2772 15.7067 17.2772H14.8541V18.0195V18.0195ZM12.0682 12.3866H12.9183C13.1976 12.3866 13.2963 12.2404 13.2963 12.0207C13.2963 11.8603 13.2065 11.6436 12.9209 11.6436H12.0682V12.3866V12.3866ZM3.25028 12.7785H2.41968L2.8271 11.6324L3.25028 12.7785ZM18.2474 11.6343L17.841 12.7797H18.6747L18.2474 11.6343Z" fill="white"/>
<path d="M38.6335 18.6566L30.2849 28.501H31.4704L38.6335 20.0546V18.6566Z" fill="white"/>
<path d="M38.6335 21.4113L32.6218 28.5011H33.8063L38.6335 22.8099V21.4113Z" fill="#9E9E9E"/>
<path d="M38.6334 24.1664L34.9565 28.501H36.1431L38.6334 25.5638V24.1664Z" fill="#6CB35E"/>
<path d="M25.2488 26.9508C25.2491 26.7463 25.2836 26.544 25.3503 26.3553C25.417 26.1666 25.5146 25.9953 25.6375 25.851C25.7603 25.7068 25.9061 25.5926 26.0664 25.5149C26.2268 25.4371 26.3985 25.3974 26.5719 25.398C26.7448 25.3978 26.9161 25.4378 27.0759 25.5158C27.2358 25.5938 27.381 25.7082 27.5033 25.8524C27.6256 25.9966 27.7226 26.1679 27.7887 26.3563C27.8548 26.5448 27.8888 26.7468 27.8887 26.9508C27.8894 27.1553 27.8559 27.358 27.7901 27.5473C27.7243 27.7365 27.6274 27.9086 27.5051 28.0536C27.3827 28.1986 27.2373 28.3137 27.0772 28.3923C26.9171 28.4709 26.7453 28.5115 26.5719 28.5116C26.398 28.5119 26.2258 28.4717 26.0652 28.3933C25.9045 28.3149 25.7586 28.2 25.6357 28.055C25.5127 27.91 25.4153 27.7378 25.3489 27.5483C25.2825 27.3588 25.2485 27.1558 25.2488 26.9508V26.9508Z" fill="#9E9E9E"/>
<path d="M27.7294 26.9508C27.7295 26.7715 27.6996 26.594 27.6414 26.4283C27.5833 26.2627 27.498 26.1122 27.3905 25.9855C27.283 25.8587 27.1553 25.7582 27.0148 25.6897C26.8743 25.6212 26.7238 25.586 26.5717 25.5862C26.4195 25.5857 26.2686 25.6206 26.1279 25.689C25.9871 25.7573 25.8591 25.8578 25.7513 25.9845C25.6434 26.1113 25.5579 26.2619 25.4995 26.4277C25.4411 26.5935 25.411 26.7712 25.4109 26.9508C25.4109 27.3133 25.533 27.6611 25.7504 27.9174C25.9678 28.1738 26.2627 28.3178 26.5702 28.3178C26.8776 28.3178 27.1725 28.1738 27.3899 27.9174C27.6073 27.6611 27.7294 27.3133 27.7294 26.9508V26.9508Z" fill="white"/>
<path d="M27.2283 27.8231H27.0146L26.5919 27.02H26.2611V27.8231H26.0811V26.082H26.7237C26.8481 26.082 26.9726 26.0907 27.0833 26.1681C27.1941 26.2418 27.2487 26.3966 27.2487 26.5427C27.2487 26.8857 27.0455 27.012 26.7825 27.02L27.2283 27.8231V27.8231Z" fill="#9E9E9E"/>
<path d="M26.5376 26.8529C26.745 26.8529 27.0664 26.8938 27.0664 26.5384C27.0664 26.2697 26.8658 26.2375 26.6826 26.2375H26.2615V26.8529H26.5376ZM30.7789 16.4643C30.7815 17.0128 30.6387 17.1862 30.2927 17.1862C30.0979 17.1862 29.9792 17.0853 29.9792 16.9404C29.9798 16.559 30.457 16.6488 30.7789 16.4643V16.4643ZM35.8454 16.3213C35.8454 16.6618 35.7368 17.0029 35.395 17.0029C35.0731 17.0029 35.007 16.6457 35.007 16.3374C35.007 16.0142 35.0968 15.6439 35.4244 15.6439C35.7509 15.6439 35.8454 15.9962 35.8454 16.3213Z" fill="white"/>
</g>
<defs>
<clipPath id="clip0_4603_201">
<rect width="40" height="30" fill="white"/>
</clipPath>
</defs>
</svg>
